<svg width="32" height="32" viewBox="0 0 32 32" xmlns="http://www.w3.org/2000/svg">
    <path
        fill="#666"
        d="M5.7,22.1 C4.7,22.1 3.7,21.8 2.8,21.2 C0.6,19.7 -0.1,16.9 0.9,14 C2.4,8.1 3.4,4.5 4,3.3 C5.1,1.2 7,0 9.2,0 C10.2,0 10.9,0.4 11.6,0.8 C12.5,1.3 13.5,1.9 16,1.9 C18.4,1.9 19.5,1.3 20.4,0.8 C21.1,0.4 21.8,0 22.9,0 C25.5,0 26.9,1.5 28.3,3.7 C29.7,6 31.1,13.3 31.3,14.1 C31.9,17.4 31.2,19.8 29.3,21.2 C27.5,22.4 25.3,22.4 23.5,21.2 L19.4,18.2 C18.8,17.7 18.1,17.5 17.3,17.5 L14.8,17.5 C14,17.5 13.3,17.7 12.7,18.2 L8.6,21.2 C7.7,21.7 6.7,22.1 5.7,22.1 Z M14.8,15.4 L17.3,15.4 C18.5,15.4 19.6,15.8 20.6,16.5 L24.7,19.5 C25.8,20.3 27.1,20.3 28.2,19.5 C29.5,18.6 29.8,17 29.4,14.4 C29,12.3 27.7,6.3 26.7,4.7 C25.4,2.6 24.5,1.9 23,1.9 C22.5,1.9 22.1,2.1 21.5,2.4 C20.5,3 19.1,3.7 16.1,3.7 C13.1,3.7 11.8,2.9 10.8,2.4 C10.2,2.1 9.9,1.9 9.4,1.9 C7.5,1.9 6.5,3.1 5.9,4.2 C5.5,4.9 4.7,7.3 2.9,14.5 C2.2,16.6 2.7,18.5 4.1,19.5 C5.2,20.3 6.5,20.2 7.5,19.5 L11.6,16.5 C12.5,15.8 13.6,15.4 14.8,15.4 Z M9.7,11.9 C8.2,11.9 7,10.7 7,9.2 C7,7.7 8.2,6.5 9.7,6.5 C11.2,6.5 12.4,7.7 12.4,9.2 C12.4,10.7 11.2,11.9 9.7,11.9 Z M9.7,10.1 C10.2,10.1 10.6,9.7 10.6,9.2 C10.6,8.7 10.2,8.3 9.7,8.3 C9.2,8.3 8.8,8.7 8.8,9.2 C8.8,9.7 9.2,10.1 9.7,10.1 Z M23.4,8.3 L24.3,8.3 C24.8,8.3 25.2,8.7 25.2,9.2 C25.2,9.7 24.8,10.1 24.3,10.1 L23.4,10.1 L23.4,11 C23.4,11.5 23,11.9 22.5,11.9 C22,11.9 21.6,11.5 21.6,11 L21.6,10.1 L20.7,10.1 C20.2,10.1 19.8,9.7 19.8,9.2 C19.8,8.7 20.2,8.3 20.7,8.3 L21.6,8.3 L21.6,7.4 C21.6,6.9 22,6.5 22.5,6.5 C23,6.5 23.4,6.9 23.4,7.4 L23.4,8.3 Z"
        transform="translate(0 5)"
    />
</svg>
