
<svg width="32" height="32" viewBox="0 0 32 32" xmlns="http://www.w3.org/2000/svg">
    <path
        fill="#666"
        d="M8 15.147V15h8v2H8v-.154l-3.931 7.09c-.174.36-.011.81.41 1.015a.71.71 0 0 0 .28.049h9.208l13.642-8.466c.381-.219.5-.662.313-1.008a1.013 1.013 0 0 0-.331-.318L13.974 7.003 4.705 7c-.385-.02-.675.222-.69.452 0 .15.02.276.075.452L8 15.147zm-1.815.848L2.288 8.777l-.066-.15a3.507 3.507 0 0 1-.206-1.235c.086-1.417 1.342-2.467 2.743-2.39h9.771l.238.144 13.883 8.367c.426.277.738.58 1.001 1.011.727 1.337.287 2.98-1.018 3.727L14.537 27H4.76c-.407 0-.811-.083-1.156-.251-1.401-.682-1.994-2.32-1.31-3.733l3.892-7.021z"/>
</svg>
