<svg width="32" height="32" viewBox="0 0 32 32" xmlns="http://www.w3.org/2000/svg">
    <path
        fill="#666"
        d="M28,7.2 L28,4 C28,1.8 26.2,0 24,0 L4,0 C1.8,0 0,1.8 0,4 L0,18 C0,20.2 1.8,22 4,22 L24,22 C26.2,22 28,20.2 28,18 L28,14.8 C29.2,14.4 30,13.3 30,12 L30,10 C30,8.7 29.2,7.6 28,7.2 Z M26,18 C26,19.1 25.1,20 24,20 L4,20 C2.9,20 2,19.1 2,18 L2,4 C2,2.9 2.9,2 4,2 L24,2 C25.1,2 26,2.9 26,4 L26,7 L22,7 C20.3,7 19,8.3 19,10 L19,12 C19,13.7 20.3,15 22,15 L26,15 L26,18 Z M28,12 C28,12.6 27.6,13 27,13 L26,13 L22,13 C21.4,13 21,12.6 21,12 L21,10 C21,9.4 21.4,9 22,9 L26,9 L27,9 C27.6,9 28,9.4 28,10 L28,12 Z"
        transform="translate(1 5)"
    />
</svg>
