
<svg width="32" height="32" viewBox="0 0 32 32" xmlns="http://www.w3.org/2000/svg">
    <path
        fill="#666"
        d="M26.5,12.9 L26.5,26 C26.5,26.6 26.1,27 25.5,27 L3.5,27 C2.9,27 2.5,26.6 2.5,26 L2.5,13 L2.1,13.3 C1.7,13.7 1,13.6 0.7,13.2 C0.3,12.8 0.4,12.1 0.8,11.8 L13.8,0.9 C14,0.7 14.3,0.7 14.5,0.7 C14.7,0.7 15,0.8 15.2,0.9 L28.2,11.8 C28.6,12.2 28.7,12.8 28.3,13.2 C27.9,13.6 27.3,13.7 26.9,13.3 L26.5,12.9 Z M24.5,11.3 L14.6,3 L4.5,11.5 L4.5,25.2 L24.5,25.2 L24.5,11.3 Z M11.3,12.3 C10.8,12.3 10.4,12.7 10.4,13.2 C10.4,13.7 10.8,14.1 11.3,14.1 C11.8,14.1 12.2,13.7 12.2,13.2 C12.2,12.8 11.8,12.3 11.3,12.3 Z M11.3,16 C9.8,16 8.5,14.8 8.5,13.2 C8.5,11.7 9.7,10.4 11.3,10.4 C12.8,10.4 14.1,11.6 14.1,13.2 C14,14.8 12.8,16 11.3,16 Z M17.7,18.8 C17.2,18.8 16.8,19.2 16.8,19.7 C16.8,20.2 17.2,20.6 17.7,20.6 C18.2,20.6 18.6,20.2 18.6,19.7 C18.7,19.2 18.2,18.8 17.7,18.8 Z M17.7,22.5 C16.2,22.5 14.9,21.3 14.9,19.7 C14.9,18.2 16.1,16.9 17.7,16.9 C19.2,16.9 20.5,18.1 20.5,19.7 C20.5,21.3 19.3,22.5 17.7,22.5 Z M10.3,21.6 C10.1,21.6 9.8,21.5 9.6,21.3 C9.2,20.9 9.2,20.4 9.6,20 L17.9,11.7 C18.3,11.3 18.8,11.3 19.2,11.7 C19.6,12.1 19.6,12.6 19.2,13 L10.9,21.3 C10.8,21.5 10.6,21.6 10.3,21.6 Z"
        transform="translate(2 2)"
    />
</svg>
