<svg width="32" height="32" viewBox="0 0 32 32" xmlns="http://www.w3.org/2000/svg">
    <path
        fill="#666"
        d="M3.74 12.505a1 1 0 0 1-1.48-1.345c7.18-7.903 19.172-8.246 26.755-.754l.706.734a1 1 0 1 1-1.442 1.386l-.352-.366-.335-.349c-6.755-6.674-17.436-6.369-23.852.694zm3.946 4.277a1 1 0 0 1-1.512-1.31c4.897-5.655 13.312-6.077 18.694-.991.348.301.692.66.982 1.02a1 1 0 1 1-1.56 1.252 6.227 6.227 0 0 0-.764-.79c-4.586-4.332-11.688-3.976-15.84.819zm4.279 4.55a1 1 0 0 1-1.604-1.194c2.404-3.23 6.882-3.836 9.982-1.344.41.32.684.614 1.26 1.297a1 1 0 0 1-1.53 1.288c-.484-.573-.698-.803-.97-1.016-2.224-1.788-5.406-1.357-7.138.97zM16 23.5a1.5 1.5 0 1 1 0 3 1.5 1.5 0 0 1 0-3z"
    />
</svg>
