
<svg width="32" height="32" viewBox="0 0 32 32" xmlns="http://www.w3.org/2000/svg">
    <path
        fill="#666"
        d="M29.3,3.2 C28.8,2.7 28,2.5 27,2.5 L24,2.5 C24,1.4 23.1,0.5 22,0.5 L8,0.5 C6.9,0.5 6,1.4 6,2.5 L3,2.5 C2,2.5 1.2,2.7 0.7,3.2 C0.4,3.5 0,4.1 0,5 C0,6.5 1.3,11.2 2.4,12.1 L2.5,12.2 C3.3,12.9 4.2,13.4 6.5,13.4 C7.6,16.6 10.6,19 14.1,19.4 L14.1,23.5 L10.1,23.5 C9.5,23.5 9.1,23.9 9.1,24.5 C9.1,25.1 9.5,25.5 10.1,25.5 L14.1,25.5 L16.1,25.5 L20.1,25.5 C20.7,25.5 21.1,25.1 21.1,24.5 C21.1,23.9 20.7,23.5 20.1,23.5 L16.1,23.5 L16.1,19.4 C19.6,19 22.6,16.7 23.7,13.4 C26,13.3 26.8,12.8 27.7,12.2 L27.8,12.1 C28.7,11.3 30,6.6 30,5 C30,4.1 29.6,3.5 29.3,3.2 Z M3.7,10.6 C3.2,10.1 2,6.5 2,5 C2,4.9 2,4.7 2.1,4.6 C2.2,4.6 2.5,4.5 3,4.5 L6,4.5 L6,11.5 C4.6,11.4 4.2,11 3.7,10.6 Z M21.9,12.2 C21.3,15.3 18.4,17.5 15,17.5 C11.6,17.5 8.8,15.3 8.1,12.2 L8,11.9 L8,2.5 L22,2.5 L22,11.8 L21.9,12.2 Z M26.4,10.6 C25.9,11 25.4,11.4 24,11.5 L24,4.5 L27,4.5 C27.5,4.5 27.8,4.6 27.9,4.7 C28,4.7 28,4.9 28,5 C28,6.5 26.8,10.1 26.4,10.6 Z"
        transform="translate(1 3)"
    />
</svg>

