
<svg width="32" height="32" viewBox="0 0 32 32" xmlns="http://www.w3.org/2000/svg">
    <path
        fill="#666"
        d="M29.633 30.547c-2.365-2.978-4.392-3.795-6.263-4.303a39.803 39.803 0 0 0-.781-.201l-.1-.025c-1.575-.393-3.056-.775-4.56-2.326a11.395 11.395 0 0 1-1.303-1.651c-.113-.17-.225-.348-.338-.535-.32-.53-.294.782-.172 2.361l.006.078c-.1.003-.2.006-.302.006-2.116 0-3.886-.753-5.41-2.3-1.524-1.55-2.265-3.39-2.265-5.629 0-2.243.72-4.092 2.203-5.65 1.475-1.553 3.265-2.307 5.472-2.307 2.156 0 3.95.753 5.484 2.302 1.532 1.549 2.278 3.413 2.278 5.7 0 .293-.013.58-.038.86l-.076-.005c-1.311-.085-2.452-.067-2.531.012-.191.193.336.165.572.23.385.105.743.233 1.076.382.26.117.503.246.732.39l.069.043c1.394.898 2.184 2.29 2.44 4.122.01.074.054.173.132.042.73-1.246 1.123-2.216 1.334-2.901l.01.005a12.531 12.531 0 0 0 .188-.807c.157-.794.236-1.61.236-2.446 0-2.166-.533-4.201-1.585-6.049a11.525 11.525 0 0 0-4.362-4.369C19.944 4.53 17.91 4 15.734 4c-2.083 0-4.058.536-5.866 1.596a11.593 11.593 0 0 0-4.3 4.397A12.23 12.23 0 0 0 4 16.052c0 2.166.528 4.195 1.57 6.032A11.448 11.448 0 0 0 9.92 26.44a11.906 11.906 0 0 0 5.973 1.576c.452 0 .898-.026 1.338-.074a89.447 89.447 0 0 0 1.09-.091c1.247-.112 2.442-.23 3.643-.178 2.263.096 4.551.79 7.272 3.238.273.245.638-.062.398-.364m-7.771-7.627c-.237 0-.435.084-.556.236-.312.39-.172 1.077.305 1.5.208.185.508.295.803.295.3 0 .55-.114.704-.321.277-.378.117-.914-.407-1.364-.26-.223-.561-.346-.85-.346m2.615-1.96c-.232-.07-.405-.018-.49.141-.13.24-.035.716.226 1.13.266.42.49.633.67.633a.204.204 0 0 0 .158-.076c.1-.116.133-.359.092-.667-.043-.313-.233-.96-.656-1.161"
    />
</svg>
